<svg width="20" height="20" viewBox="0 0 20 20" fill="none" xmlns="http://www.w3.org/2000/svg">
<path d="M19.7923 7.82522L19.2581 7.90367C18.2587 8.05046 17.5006 8.94075 17.5006 10.0026C17.5006 11.0645 18.2587 11.9548 19.2581 12.1015L19.7923 12.18V15.1006C19.7923 16.3085 18.8322 17.2943 17.6395 17.2943H2.36176C1.16907 17.2943 0.208984 16.3085 0.208984 15.1006V4.90456C0.208984 3.69669 1.16907 2.71094 2.36176 2.71094H17.6395C18.8322 2.71094 19.7923 3.69669 19.7923 4.90456V7.82522Z" fill="#FF6000"/>
<path fill-rule="evenodd" clip-rule="evenodd" d="M8.12012 10.0565L8.51845 9.64755L6.48198 9.64755C5.53536 9.64771 4.71111 8.99849 4.46908 8.07136C4.22832 7.14906 4.62161 6.17411 5.43422 5.69243C6.25445 5.20624 7.2928 5.34667 7.96009 6.03196L9.375 7.48471V3.92383C9.375 3.09049 10.625 3.09049 10.625 3.92383V7.48543L12.0406 6.03201C12.7079 5.34667 13.7463 5.20623 14.5665 5.69243C15.3791 6.17411 15.7724 7.14905 15.5316 8.07136C15.2896 8.99849 14.4653 9.64771 13.5188 9.64754H11.4824L11.8807 10.0565L13.313 11.5271C13.8944 12.1241 12.999 12.9962 12.4175 12.3993L10.9852 10.9287L10.9852 10.9286L10.625 10.5588V16.0807C10.625 16.914 9.375 16.914 9.375 16.0807V10.5597L9.01558 10.9287L8.12012 10.0565ZM7.58309 12.3994L9.01538 10.9288L8.11992 10.0566L6.68762 11.5272C6.10619 12.1242 7.00166 12.9964 7.58309 12.3994ZM13.5189 8.39754C13.8918 8.39761 14.2226 8.13704 14.3222 7.75563C14.423 7.36939 14.2592 6.96338 13.9291 6.76772C13.6066 6.57658 13.2017 6.63135 12.9361 6.90411L11.4815 8.39754H13.5189ZM5.67828 7.75563C5.77785 8.13704 6.10866 8.39761 6.4816 8.39755H8.5189L7.0643 6.90406C6.79876 6.63135 6.39378 6.57658 6.07133 6.76772C5.74124 6.96338 5.57745 7.36939 5.67828 7.75563ZM2.17014 8.66659H1.40625C0.572917 8.66659 0.572917 7.41659 1.40625 7.41659H2.17014H2.17026H2.93403C3.76736 7.41659 3.76736 8.66659 2.93403 8.66659H2.17014Z" fill="white"/>
</svg>
