<svg width="14" height="14" viewBox="0 0 14 14" fill="none" xmlns="http://www.w3.org/2000/svg">
<path d="M0.660178 7H0.659909L0.660446 7.00732L0.665058 7.07018L0.664786 7.0702L0.665869 7.07751C0.703407 7.33094 0.921681 7.52537 1.18554 7.52537C1.18555 7.52537 1.18555 7.52537 1.18555 7.52537L6.47515 7.5255L6.47528 12.8151C6.47528 13.1053 6.7105 13.3405 7.00065 13.3405L7.00065 13.3407L7.00797 13.3402L7.07083 13.3356L7.07085 13.3359L7.07816 13.3348C7.33159 13.2972 7.52602 13.079 7.52602 12.8151L7.52615 7.5255L12.8158 7.52537C13.1059 7.52537 13.3411 7.29015 13.3411 7H13.3414L13.3409 6.99268L13.3362 6.92982L13.3365 6.9298L13.3354 6.92249C13.2979 6.66906 13.0796 6.47463 12.8158 6.47463L7.52615 6.4745L7.52602 1.1849C7.52602 0.894742 7.29081 0.659527 7.00065 0.659526L7.00065 0.659258L6.99333 0.659795L6.93048 0.664407L6.93046 0.664134L6.92314 0.665218C6.66971 0.702755 6.47528 0.92103 6.47528 1.18489L6.47515 6.4745L1.18555 6.47463C1.18555 6.47463 1.18555 6.47463 1.18554 6.47463C0.895392 6.47463 0.660178 6.70985 0.660178 7Z" fill="#FF6000" stroke="#FF6000" stroke-width="0.2"/>
</svg>
